<?xml version="1.0" encoding="iso-8859-1"?>
<!-- Uploaded to: SVG Repo, www.svgrepo.com, Generator: SVG Repo Mixer Tools -->
<svg fill="#000000" version="1.1" id="Layer_1" xmlns="http://www.w3.org/2000/svg" xmlns:xlink="http://www.w3.org/1999/xlink" 
	 viewBox="0 0 297 297" xml:space="preserve">
<g>
	<g>
		<g>
			<path d="M223.271,181.31c-1.699-14.088-3.106-24.923-4.067-31.335c-1.908-12.736-12.359-23.586-26.004-26.997l-13.084-3.271
				c-3.314,14.324-16.167,25.038-31.485,25.038c-15.317,0-28.17-10.713-31.484-25.038l-13.085,3.271
				c-13.644,3.412-24.095,14.261-26.004,26.997c-0.965,6.439-2.371,17.275-4.067,31.334c-0.388,3.223,0.583,6.336,2.736,8.764
				c2.153,2.428,5.127,3.766,8.374,3.766h127.062c3.246,0,6.22-1.337,8.373-3.766C222.688,187.644,223.659,184.532,223.271,181.31z"
				/>
			<path d="M136.49,95.582c-0.342,5.325-1.776,11.852-6.085,17.011c0.091,9.972,8.233,18.056,18.226,18.056
				c9.994,0,18.136-8.084,18.227-18.056c-4.309-5.159-5.744-11.686-6.086-17.011c-3.85,1.41-7.912,2.187-12.141,2.187
				S140.34,96.992,136.49,95.582z"/>
			<path d="M148.631,83.674c17.123,0,33.93-23.572,33.93-47.588c0-20.611-13.318-33.93-33.93-33.93
				c-20.61,0-33.929,13.318-33.929,33.93C114.702,60.102,131.508,83.674,148.631,83.674z"/>
			<path d="M66.424,239.748H5.969c-3.292,0-5.969,2.678-5.969,5.97v25.859c0,3.292,2.677,5.97,5.969,5.97h60.455
				c3.292,0,5.969-2.678,5.969-5.97v-25.859C72.393,242.426,69.716,239.748,66.424,239.748z"/>
			<path d="M66.181,199.424c-0.433-0.489-0.838-0.997-1.23-1.514l-27.744,27.743h19.935l19.158-19.31
				C72.451,204.913,68.962,202.559,66.181,199.424z"/>
			<path d="M291.031,239.748h-60.455c-3.292,0-5.969,2.678-5.969,5.97v25.859c0,3.292,2.677,5.97,5.969,5.97h60.455
				c3.292,0,5.969-2.678,5.969-5.97v-25.859C297,242.426,294.323,239.748,291.031,239.748z"/>
			<path d="M259.792,225.653l-27.594-27.594c-0.357,0.465-0.725,0.922-1.116,1.363c-2.83,3.194-6.396,5.575-10.328,6.996
				l19.103,19.235H259.792z"/>
			<path d="M178.727,257.046h-60.454c-3.292,0-5.97,2.677-5.97,5.969v25.86c0,3.292,2.678,5.969,5.97,5.969h60.454
				c3.292,0,5.97-2.677,5.97-5.969v-25.86C184.697,259.724,182.019,257.046,178.727,257.046z"/>
			<rect x="141.583" y="207.933" width="14.095" height="35.018"/>
		</g>
	</g>
</g>
</svg>